<svg xmlns="http://www.w3.org/2000/svg" xmlns:ev="http://www.w3.org/2001/xml-events" xmlns:xlink="http://www.w3.org/1999/xlink" width="793.701" height="1122.518" class="st20" color-interpolation-filters="sRGB" viewBox="0 0 595.276 841.89" xml:space="preserve"><style type="text/css">.st1{visibility:visible}.st2,.st3{stroke-linecap:butt}.st2{fill:#000;fill-opacity:.6;filter:url(#filter_3.3333334922791);stroke:#000;stroke-opacity:.6}.st3{fill:#0070c0;stroke:#15383a;stroke-width:.24}.st4{fill:#15383a;font-family:Calibri;font-size:1.00001em}.st5,.st6{stroke:#000}.st5{marker-end:url(#mrkr4-16);stroke-linecap:butt;stroke-width:.72}.st6{fill:#000;fill-opacity:1;stroke-opacity:1;stroke-width:.28571428571429}.st7,.st8{fill:url(#grad0-24);stroke-linecap:butt;stroke-width:.24}.st7{stroke:#15383a}.st8{visibility:hidden}.st10,.st8,.st9{stroke:#15383a}.st9{fill:#fff;stroke-linecap:butt;stroke-width:.72;visibility:hidden}.st10{fill:#15383a;fill-opacity:1;stroke-opacity:1;stroke-width:.35714285714286}.st11{fill:#000;stroke:#15383b;stroke-linecap:round;stroke-linejoin:round;stroke-width:.72;visibility:hidden}.st12{fill:#fff;font-family:Calibri;font-size:1.00001em}.st13{font-size:1em}.st14,.st15,.st16{stroke-linecap:butt}.st14{marker-end:url(#mrkr4-75);stroke:#000;stroke-width:.72}.st15,.st16{fill:#ffc000;stroke:#15383a;stroke-width:.24}.st16{stroke:#15383b;stroke-width:1}.st17{fill:#fff;font-family:Calibri;font-size:.666664em}.st18,.st19{fill:#0070c0;stroke:#15383b;stroke-linecap:butt;stroke-width:1}.st19{fill:none;stroke:none}.st20{fill:none;fill-rule:evenodd;font-size:12px;overflow:visible;stroke-linecap:square;stroke-miterlimit:3}</style><defs id="Patterns_And_Gradients"><linearGradient id="grad0-24" x1="0" x2="1" y1="0" y2="0" gradientTransform="rotate(90 0.5 0.5)"><stop offset="0" stop-color="#2c757b" stop-opacity="1"/><stop offset="1" stop-color="#1c4b4e" stop-opacity="1"/></linearGradient></defs><defs id="Markers"><g id="lend4"><path d="M 2 1 L 0 0 L 2 -1 L 2 1" style="stroke:none"/></g><marker id="mrkr4-16" class="st6" markerUnits="strokeWidth" orient="auto" overflow="visible" refX="-7"><use transform="scale(-3.5,-3.5)" xlink:href="#lend4"/></marker><g id="lend1"><path d="M 1 -1 L 0 0 L 1 1" style="stroke-linecap:round;stroke-linejoin:round;fill:none"/></g><marker id="mrkr1-47" class="st10" markerUnits="strokeWidth" orient="auto" overflow="visible"><use transform="scale(-2.8,-2.8)" xlink:href="#lend1"/></marker><marker id="mrkr4-75" class="st6" markerUnits="strokeWidth" orient="auto" overflow="visible" refX="-6.5"><use transform="scale(-3.5,-3.5)" xlink:href="#lend4"/></marker></defs><defs id="Filters"><filter id="filter_3.3333334922791"><feGaussianBlur stdDeviation="3.333"/></filter></defs><g><title>Page-1</title><g id="group1-1" transform="translate(141.732,-735.591)"><title>Data Object</title><desc>SourceFile.cpp</desc><g id="shape2-2"><title>Sheet.2</title><g id="shadow2-3" class="st1"><path d="M34.02 809.6 L21.77 809.6 L21.77 796.54 L0 796.54 L0 841.89 L34.02 841.89 L34.02 809.6 ZM34.02 808.51 L21.77 796.54 L21.77 809.6 L34.02 809.6 L34.02 808.51 Z" class="st2" transform="matrix(1,0,0,1,0,3.00236)"/></g><path d="M34.02 809.6 L21.77 809.6 L21.77 796.54 L0 796.54 L0 841.89 L34.02 841.89 L34.02 809.6 ZM34.02 808.51 L21.77 796.54 L21.77 809.6 L34.02 809.6 L34.02 808.51 Z" class="st3"/></g><g id="shape3-7" transform="translate(14.8819,0)"><title>Sheet.3</title></g><g id="shape1-9"><text x="-18.53" y="854.69" class="st4">SourceFile.cpp</text></g></g><g id="shape27-11" transform="translate(151.654,-735.591)"><title>Dynamic Connector</title><path d="M7.09 841.89 C7.09 846.85 7.09 855.68 7.09 862.36" class="st5"/></g><g id="group4-17" transform="translate(123.307,-653.386)"><title>Task</title><desc>Compiler driver</desc><g id="shape5-18"><title>Sheet.5</title><g id="shadow5-19" class="st1" transform="matrix(1,0,0,1,0,3.00236)"><rect width="70.866" height="56.693" x="0" y="785.197" class="st2" rx="5.669" ry="5.669"/></g><rect width="70.866" height="56.693" x="0" y="785.197" class="st7" rx="5.669" ry="5.669"/></g><g id="group6-25"><title>Sheet.6</title><g id="shape7-26"><title>Sheet.7</title><rect width="70.866" height="56.693" x="0" y="785.197" class="st8" rx="2.126" ry="2.126"/></g><g id="shape8-29" transform="translate(1.8,-1.8)"><title>Sheet.8</title><rect width="67.266" height="53.093" x="0" y="788.797" class="st8" rx="2.126" ry="2.126"/></g></g><g id="shape9-32" transform="translate(36.2438,-2.12598)"><title>Sheet.9</title></g><g id="group10-34" transform="translate(36.6038,-2.83465)"><title>Sheet.10</title><g id="shape11-35"><title>Sheet.11</title><rect width="11.339" height="11.339" x="0" y="830.551" class="st9"/></g><g id="shape12-37" transform="translate(2.83465,-2.83465)"><title>Sheet.12</title></g></g><g id="shape13-39" transform="translate(36.6038,-3.68504)"><title>Sheet.13</title></g><g id="shape14-41" transform="translate(37.7178,-3.68504)"><title>Sheet.14</title></g><g id="group15-43" transform="translate(36.2438,-2.83465)"><title>Sheet.15</title><g id="shape16-44" transform="translate(10.9982,1673.44) rotate(179.753)"><title>Sheet.16</title></g></g><g id="shape17-48" transform="translate(3.50394,-43.189)"><title>Sheet.17</title></g><g id="shape18-50" transform="translate(3.00394,-42.689)"><title>Sheet.18</title></g><g id="group19-52" transform="translate(2.50394,-44.189)"><title>Sheet.19</title><g id="shape20-53"><title>Sheet.20</title><rect width="12" height="8" x="0" y="833.89" class="st11"/></g><g id="shape21-55" transform="translate(-1.9984E-015,-4.20339)"><title>Sheet.21</title></g></g><g id="shape22-57" transform="translate(2.50394,-44.189)"><title>Sheet.22</title></g><g id="shape23-59" transform="translate(3.50394,-43.189)"><title>Sheet.23</title></g><g id="shape24-61" transform="translate(3.00394,-44.189)"><title>Sheet.24</title></g><g id="shape25-63" transform="translate(3.00394,-44.189)"><title>Sheet.25</title></g><g id="shape26-65" transform="translate(-795.158,837.581) rotate(-90)"><title>Sheet.26</title></g><g id="shape4-67"><text x="13.29" y="809.94" class="st12">Compiler <tspan x="21.02" class="st13" dy="1.2em">driver</tspan></text></g></g><g id="shape51-70" transform="translate(158.74,-653.386)"><title>Dynamic Connector.51</title><path d="M0 841.89 C0 850.89 36.41 850.89 72.83 850.89 C105.38 850.89 137.93 850.89 144.7 862.53 L144.79 862.88" class="st14"/></g><g id="group28-76" transform="translate(269.291,-571.181)"><title>Task.28</title><desc>SYCL device front-end compiler</desc><g id="shape29-77"><title>Sheet.29</title><g id="shadow29-78" class="st1" transform="matrix(1,0,0,1,0,3.00236)"><rect width="70.866" height="56.693" x="0" y="785.197" class="st2" rx="5.669" ry="5.669"/></g><rect width="70.866" height="56.693" x="0" y="785.197" class="st7" rx="5.669" ry="5.669"/></g><g id="group30-83"><title>Sheet.30</title><g id="shape31-84"><title>Sheet.31</title><rect width="70.866" height="56.693" x="0" y="785.197" class="st8" rx="2.126" ry="2.126"/></g><g id="shape32-87" transform="translate(1.8,-1.8)"><title>Sheet.32</title><rect width="67.266" height="53.093" x="0" y="788.797" class="st8" rx="2.126" ry="2.126"/></g></g><g id="shape33-90" transform="translate(36.2438,-2.12598)"><title>Sheet.33</title></g><g id="group34-92" transform="translate(36.6038,-2.83465)"><title>Sheet.34</title><g id="shape35-93"><title>Sheet.35</title><rect width="11.339" height="11.339" x="0" y="830.551" class="st9"/></g><g id="shape36-95" transform="translate(2.83465,-2.83465)"><title>Sheet.36</title></g></g><g id="shape37-97" transform="translate(36.6038,-3.68504)"><title>Sheet.37</title></g><g id="shape38-99" transform="translate(37.7178,-3.68504)"><title>Sheet.38</title></g><g id="group39-101" transform="translate(36.2438,-2.83465)"><title>Sheet.39</title><g id="shape40-102" transform="translate(10.9982,1673.44) rotate(179.753)"><title>Sheet.40</title></g></g><g id="shape41-105" transform="translate(3.50394,-43.189)"><title>Sheet.41</title></g><g id="shape42-107" transform="translate(3.00394,-42.689)"><title>Sheet.42</title></g><g id="group43-109" transform="translate(2.50394,-44.189)"><title>Sheet.43</title><g id="shape44-110"><title>Sheet.44</title><rect width="12" height="8" x="0" y="833.89" class="st11"/></g><g id="shape45-112" transform="translate(-1.9984E-015,-4.20339)"><title>Sheet.45</title></g></g><g id="shape46-114" transform="translate(2.50394,-44.189)"><title>Sheet.46</title></g><g id="shape47-116" transform="translate(3.50394,-43.189)"><title>Sheet.47</title></g><g id="shape48-118" transform="translate(3.00394,-44.189)"><title>Sheet.48</title></g><g id="shape49-120" transform="translate(3.00394,-44.189)"><title>Sheet.49</title></g><g id="shape50-122" transform="translate(-795.158,837.581) rotate(-90)"><title>Sheet.50</title></g><g id="shape28-124"><text x="6.93" y="802.74" class="st12">SYCL device <tspan x="12.06" class="st13" dy="1.2em">front</tspan>-end <tspan x="13.96" class="st13" dy="1.2em">compiler</tspan></text></g></g><g id="group52-128" transform="translate(66.6142,-571.181)"><title>Task.52</title><desc>C++ host compiler</desc><g id="shape53-129"><title>Sheet.53</title><g id="shadow53-130" class="st1" transform="matrix(1,0,0,1,0,3.00236)"><rect width="70.866" height="56.693" x="0" y="785.197" class="st2" rx="5.669" ry="5.669"/></g><rect width="70.866" height="56.693" x="0" y="785.197" class="st7" rx="5.669" ry="5.669"/></g><g id="group54-135"><title>Sheet.54</title><g id="shape55-136"><title>Sheet.55</title><rect width="70.866" height="56.693" x="0" y="785.197" class="st8" rx="2.126" ry="2.126"/></g><g id="shape56-139" transform="translate(1.8,-1.8)"><title>Sheet.56</title><rect width="67.266" height="53.093" x="0" y="788.797" class="st8" rx="2.126" ry="2.126"/></g></g><g id="shape57-142" transform="translate(36.2438,-2.12598)"><title>Sheet.57</title></g><g id="group58-144" transform="translate(36.6038,-2.83465)"><title>Sheet.58</title><g id="shape59-145"><title>Sheet.59</title><rect width="11.339" height="11.339" x="0" y="830.551" class="st9"/></g><g id="shape60-147" transform="translate(2.83465,-2.83465)"><title>Sheet.60</title></g></g><g id="shape61-149" transform="translate(36.6038,-3.68504)"><title>Sheet.61</title></g><g id="shape62-151" transform="translate(37.7178,-3.68504)"><title>Sheet.62</title></g><g id="group63-153" transform="translate(36.2438,-2.83465)"><title>Sheet.63</title><g id="shape64-154" transform="translate(10.9982,1673.44) rotate(179.753)"><title>Sheet.64</title></g></g><g id="shape65-157" transform="translate(3.50394,-43.189)"><title>Sheet.65</title></g><g id="shape66-159" transform="translate(3.00394,-42.689)"><title>Sheet.66</title></g><g id="group67-161" transform="translate(2.50394,-44.189)"><title>Sheet.67</title><g id="shape68-162"><title>Sheet.68</title><rect width="12" height="8" x="0" y="833.89" class="st11"/></g><g id="shape69-164" transform="translate(-1.9984E-015,-4.20339)"><title>Sheet.69</title></g></g><g id="shape70-166" transform="translate(2.50394,-44.189)"><title>Sheet.70</title></g><g id="shape71-168" transform="translate(3.50394,-43.189)"><title>Sheet.71</title></g><g id="shape72-170" transform="translate(3.00394,-44.189)"><title>Sheet.72</title></g><g id="shape73-172" transform="translate(3.00394,-44.189)"><title>Sheet.73</title></g><g id="shape74-174" transform="translate(-795.158,837.581) rotate(-90)"><title>Sheet.74</title></g><g id="shape52-176"><text x="14.23" y="809.94" class="st12">C++ host <tspan x="13.96" class="st13" dy="1.2em">compiler</tspan></text></g></g><g id="shape79-179" transform="translate(304.724,-571.181)"><title>Dynamic Connector.79</title><path d="M0 841.89 C-0 857.13 0 879.43 -12.94 890.85 C-25.3 901.77 -49.48 902.74 -67.38 902.83 L-67.74 902.83" class="st14"/></g><g id="group76-184" transform="translate(198.29,-487.559)"><title>Data Object.76</title><desc>LLVM IR</desc><g id="shape77-185"><title>Sheet.77</title><g id="shadow77-186" class="st1"><path d="M34.02 809.6 L21.77 809.6 L21.77 796.54 L0 796.54 L0 841.89 L34.02 841.89 L34.02 809.6 ZM34.02 808.51 L21.77 796.54 L21.77 809.6 L34.02 809.6 L34.02 808.51 Z" class="st2" transform="matrix(1,0,0,1,0,3.00236)"/></g><path d="M34.02 809.6 L21.77 809.6 L21.77 796.54 L0 796.54 L0 841.89 L34.02 841.89 L34.02 809.6 ZM34.02 808.51 L21.77 796.54 L21.77 809.6 L34.02 809.6 L34.02 808.51 Z" class="st3"/></g><g id="shape78-190" transform="translate(14.8819,0)"><title>Sheet.78</title></g><g id="shape76-192"><text x="-2.7" y="854.69" class="st4">LLVM IR</text></g></g><g id="shape127-194" transform="translate(215.298,-487.559)"><title>Dynamic Connector.127</title><path d="M0 841.89 C-0 848.98 0 858.81 8.21 864.1 C16.58 869.48 33.46 870.14 46.12 870.22 L46.48 870.23" class="st14"/></g><g id="group104-199" transform="translate(266.457,-430.866)"><title>Task.104</title><desc>Target specific LLVM compiler</desc><g id="shape105-200"><title>Sheet.105</title><g id="shadow105-201" class="st1" transform="matrix(1,0,0,1,0,3.00236)"><rect width="90.709" height="56.693" x="0" y="785.197" class="st2" rx="5.669" ry="5.669"/></g><rect width="90.709" height="56.693" x="0" y="785.197" class="st7" rx="5.669" ry="5.669"/></g><g id="group106-206"><title>Sheet.106</title><g id="shape107-207"><title>Sheet.107</title><rect width="90.709" height="56.693" x="0" y="785.197" class="st8" rx="2.126" ry="2.126"/></g><g id="shape108-210" transform="translate(1.8,-1.8)"><title>Sheet.108</title><rect width="87.109" height="53.093" x="0" y="788.797" class="st8" rx="2.126" ry="2.126"/></g></g><g id="shape109-213" transform="translate(46.165,-2.12598)"><title>Sheet.109</title></g><g id="group110-215" transform="translate(46.525,-2.83465)"><title>Sheet.110</title><g id="shape111-216"><title>Sheet.111</title><rect width="11.339" height="11.339" x="0" y="830.551" class="st9"/></g><g id="shape112-218" transform="translate(2.83465,-2.83465)"><title>Sheet.112</title></g></g><g id="shape113-220" transform="translate(46.525,-3.68504)"><title>Sheet.113</title></g><g id="shape114-222" transform="translate(47.6391,-3.68504)"><title>Sheet.114</title></g><g id="group115-224" transform="translate(46.165,-2.83465)"><title>Sheet.115</title><g id="shape116-225" transform="translate(10.9982,1673.44) rotate(179.753)"><title>Sheet.116</title></g></g><g id="shape117-228" transform="translate(3.50394,-43.189)"><title>Sheet.117</title></g><g id="shape118-230" transform="translate(3.00394,-42.689)"><title>Sheet.118</title></g><g id="group119-232" transform="translate(2.50394,-44.189)"><title>Sheet.119</title><g id="shape120-233"><title>Sheet.120</title><rect width="12" height="8" x="0" y="833.89" class="st11"/></g><g id="shape121-235" transform="translate(-1.9984E-015,-4.20339)"><title>Sheet.121</title></g></g><g id="shape122-237" transform="translate(2.50394,-44.189)"><title>Sheet.122</title></g><g id="shape123-239" transform="translate(3.50394,-43.189)"><title>Sheet.123</title></g><g id="shape124-241" transform="translate(3.00394,-44.189)"><title>Sheet.124</title></g><g id="shape125-243" transform="translate(3.00394,-44.189)"><title>Sheet.125</title></g><g id="shape126-245" transform="translate(-785.237,837.581) rotate(-90)"><title>Sheet.126</title></g><g id="shape104-247"><text x="10.15" y="809.94" class="st12">Target specific <tspan x="8.94" class="st13" dy="1.2em">LLVM compiler</tspan></text></g></g><g id="shape131-250" transform="translate(304.724,-430.866)"><title>Dynamic Connector.131</title><path d="M7.09 841.89 C7.09 846.17 7.09 853.67 7.09 859.53" class="st5"/></g><g id="group128-255" transform="translate(294.803,-362.835)"><title>Data Object.128</title><desc>Target binary</desc><g id="shape129-256"><title>Sheet.129</title><g id="shadow129-257" class="st1"><path d="M34.02 809.6 L21.77 809.6 L21.77 796.54 L0 796.54 L0 841.89 L34.02 841.89 L34.02 809.6 ZM34.02 808.51 L21.77 796.54 L21.77 809.6 L34.02 809.6 L34.02 808.51 Z" class="st2" transform="matrix(1,0,0,1,0,3.00236)"/></g><path d="M34.02 809.6 L21.77 809.6 L21.77 796.54 L0 796.54 L0 841.89 L34.02 841.89 L34.02 809.6 ZM34.02 808.51 L21.77 796.54 L21.77 809.6 L34.02 809.6 L34.02 808.51 Z" class="st3"/></g><g id="shape130-261" transform="translate(14.8819,0)"><title>Sheet.130</title></g><g id="shape128-263"><text x="-15.42" y="854.69" class="st4">Target binary</text></g></g><g id="group136-265" transform="translate(179.865,-311.811)"><title>Task.136</title><desc>Offload-bundler</desc><g id="shape137-266"><title>Sheet.137</title><g id="shadow137-267" class="st1" transform="matrix(1,0,0,1,0,3.00236)"><rect width="70.866" height="56.693" x="0" y="785.197" class="st2" rx="5.669" ry="5.669"/></g><rect width="70.866" height="56.693" x="0" y="785.197" class="st7" rx="5.669" ry="5.669"/></g><g id="group138-272"><title>Sheet.138</title><g id="shape139-273"><title>Sheet.139</title><rect width="70.866" height="56.693" x="0" y="785.197" class="st8" rx="2.126" ry="2.126"/></g><g id="shape140-276" transform="translate(1.8,-1.8)"><title>Sheet.140</title><rect width="67.266" height="53.093" x="0" y="788.797" class="st8" rx="2.126" ry="2.126"/></g></g><g id="shape141-279" transform="translate(36.2438,-2.12598)"><title>Sheet.141</title></g><g id="group142-281" transform="translate(36.6038,-2.83465)"><title>Sheet.142</title><g id="shape143-282"><title>Sheet.143</title><rect width="11.339" height="11.339" x="0" y="830.551" class="st9"/></g><g id="shape144-284" transform="translate(2.83465,-2.83465)"><title>Sheet.144</title></g></g><g id="shape145-286" transform="translate(36.6038,-3.68504)"><title>Sheet.145</title></g><g id="shape146-288" transform="translate(37.7178,-3.68504)"><title>Sheet.146</title></g><g id="group147-290" transform="translate(36.2438,-2.83465)"><title>Sheet.147</title><g id="shape148-291" transform="translate(10.9982,1673.44) rotate(179.753)"><title>Sheet.148</title></g></g><g id="shape149-294" transform="translate(3.50394,-43.189)"><title>Sheet.149</title></g><g id="shape150-296" transform="translate(3.00394,-42.689)"><title>Sheet.150</title></g><g id="group151-298" transform="translate(2.50394,-44.189)"><title>Sheet.151</title><g id="shape152-299"><title>Sheet.152</title><rect width="12" height="8" x="0" y="833.89" class="st11"/></g><g id="shape153-301" transform="translate(-1.9984E-015,-4.20339)"><title>Sheet.153</title></g></g><g id="shape154-303" transform="translate(2.50394,-44.189)"><title>Sheet.154</title></g><g id="shape155-305" transform="translate(3.50394,-43.189)"><title>Sheet.155</title></g><g id="shape156-307" transform="translate(3.00394,-44.189)"><title>Sheet.156</title></g><g id="shape157-309" transform="translate(3.00394,-44.189)"><title>Sheet.157</title></g><g id="shape158-311" transform="translate(-795.158,837.581) rotate(-90)"><title>Sheet.158</title></g><g id="shape136-313"><text x="15.39" y="809.94" class="st12">Offload-<tspan x="16.37" class="st13" dy="1.2em">bundler</tspan></text></g></g><g id="shape160-316" transform="translate(311.811,-362.835)"><title>Dynamic Connector.160</title><path d="M0 841.89 C-0 847.56 0 855.15 -9.13 859.35 C-19.28 864.03 -40.71 864.51 -56.04 864.56 L-56.4 864.56" class="st14"/></g><g id="shape164-321" transform="translate(215.298,-232.441)"><title>Dynamic Connector.164</title><path d="M0 841.89 C0 851.47 -0 865.17 9.21 872.33 C18.12 879.27 35.67 880.09 48.95 880.18 L49.31 880.19" class="st14"/></g><g id="shape168-326" transform="translate(93.5433,-571.181)"><title>Dynamic Connector.168</title><path d="M7.09 841.89 C7.09 879.25 7.09 952.43 7.09 992.76" class="st5"/></g><g id="group165-331" transform="translate(83.622,-369.921)"><title>Data Object.165</title><desc>Host object file</desc><g id="shape166-332"><title>Sheet.166</title><g id="shadow166-333" class="st1"><path d="M34.02 809.6 L21.77 809.6 L21.77 796.54 L0 796.54 L0 841.89 L34.02 841.89 L34.02 809.6 ZM34.02 808.51 L21.77 796.54 L21.77 809.6 L34.02 809.6 L34.02 808.51 Z" class="st2" transform="matrix(1,0,0,1,0,3.00236)"/></g><path d="M34.02 809.6 L21.77 809.6 L21.77 796.54 L0 796.54 L0 841.89 L34.02 841.89 L34.02 809.6 ZM34.02 808.51 L21.77 796.54 L21.77 809.6 L34.02 809.6 L34.02 808.51 Z" class="st15"/></g><g id="shape167-337" transform="translate(14.8819,0)"><title>Sheet.167</title></g><g id="shape165-339"><text x="-19.82" y="854.69" class="st4">Host object file</text></g></g><g id="group176-341" transform="translate(269.291,-165.787)"><title>Task.176</title><desc>Offload-wrapper</desc><g id="shape177-342"><title>Sheet.177</title><g id="shadow177-343" class="st1" transform="matrix(1,0,0,1,0,3.00236)"><rect width="70.866" height="56.693" x="0" y="785.197" class="st2" rx="5.669" ry="5.669"/></g><rect width="70.866" height="56.693" x="0" y="785.197" class="st7" rx="5.669" ry="5.669"/></g><g id="group178-348"><title>Sheet.178</title><g id="shape179-349"><title>Sheet.179</title><rect width="70.866" height="56.693" x="0" y="785.197" class="st8" rx="2.126" ry="2.126"/></g><g id="shape180-352" transform="translate(1.8,-1.8)"><title>Sheet.180</title><rect width="67.266" height="53.093" x="0" y="788.797" class="st8" rx="2.126" ry="2.126"/></g></g><g id="shape181-355" transform="translate(36.2438,-2.12598)"><title>Sheet.181</title></g><g id="group182-357" transform="translate(36.6038,-2.83465)"><title>Sheet.182</title><g id="shape183-358"><title>Sheet.183</title><rect width="11.339" height="11.339" x="0" y="830.551" class="st9"/></g><g id="shape184-360" transform="translate(2.83465,-2.83465)"><title>Sheet.184</title></g></g><g id="shape185-362" transform="translate(36.6038,-3.68504)"><title>Sheet.185</title></g><g id="shape186-364" transform="translate(37.7178,-3.68504)"><title>Sheet.186</title></g><g id="group187-366" transform="translate(36.2438,-2.83465)"><title>Sheet.187</title><g id="shape188-367" transform="translate(10.9982,1673.44) rotate(179.753)"><title>Sheet.188</title></g></g><g id="shape189-370" transform="translate(3.50394,-43.189)"><title>Sheet.189</title></g><g id="shape190-372" transform="translate(3.00394,-42.689)"><title>Sheet.190</title></g><g id="group191-374" transform="translate(2.50394,-44.189)"><title>Sheet.191</title><g id="shape192-375"><title>Sheet.192</title><rect width="12" height="8" x="0" y="833.89" class="st11"/></g><g id="shape193-377" transform="translate(-1.9984E-015,-4.20339)"><title>Sheet.193</title></g></g><g id="shape194-379" transform="translate(2.50394,-44.189)"><title>Sheet.194</title></g><g id="shape195-381" transform="translate(3.50394,-43.189)"><title>Sheet.195</title></g><g id="shape196-383" transform="translate(3.00394,-44.189)"><title>Sheet.196</title></g><g id="shape197-385" transform="translate(3.00394,-44.189)"><title>Sheet.197</title></g><g id="shape198-387" transform="translate(-795.158,837.581) rotate(-90)"><title>Sheet.198</title></g><g id="shape176-389"><text x="15.39" y="809.94" class="st12">Offload-<tspan x="14.8" class="st13" dy="1.2em">wrapper</tspan></text></g></g><g id="shape204-392" transform="translate(297.638,-165.787)"><title>Dynamic Connector.204</title><path d="M7.09 841.89 C7.09 844.12 7.09 847.75 7.09 851.02" class="st5"/></g><g id="group201-397" transform="translate(287.717,-106.26)"><title>Data Object.201</title><desc>Fat binary file</desc><g id="shape202-398"><title>Sheet.202</title><g id="shadow202-399" class="st1"><path d="M34.02 809.6 L21.77 809.6 L21.77 796.54 L0 796.54 L0 841.89 L34.02 841.89 L34.02 809.6 ZM34.02 808.51 L21.77 796.54 L21.77 809.6 L34.02 809.6 L34.02 808.51 Z" class="st2" transform="matrix(1,0,0,1,0,3.00236)"/></g><path d="M34.02 809.6 L21.77 809.6 L21.77 796.54 L0 796.54 L0 841.89 L34.02 841.89 L34.02 809.6 ZM34.02 808.51 L21.77 796.54 L21.77 809.6 L34.02 809.6 L34.02 808.51 Z" class="st3"/></g><g id="shape203-403" transform="translate(14.8819,0)"><title>Sheet.203</title></g><g id="shape201-405"><text x="-16.28" y="854.69" class="st4">Fat binary file</text></g></g><g id="shape205-407" transform="translate(158.74,-653.386)"><title>Dynamic Connector.205</title><path d="M0 841.89 C-0 852.52 -16.13 852.52 -32.25 852.52 C-46.5 852.52 -60.76 852.52 -64.15 862.42 L-64.2 862.77" class="st14"/></g><g id="shape206-412" transform="translate(222.385,-487.559)"><title>Dynamic Connector.206</title><path d="M-7.09 841.89 C-7.09 870.06 -7.09 924.88 -7.09 955.9" class="st5"/></g><g id="shape211-417" transform="translate(100.63,-369.921)"><title>Dynamic Connector.211</title><path d="M0 841.89 C-0 849.33 0 859.3 11.86 864.82 C25.36 871.1 54.23 871.61 74.2 871.65 L74.56 871.65" class="st14"/></g><g id="group220-422" transform="translate(185.802,-212.52)"><title>Sheet.220</title><g id="group214-423" transform="translate(1.14961,-19.9213)"><title>Entity 2</title><g id="shape215-424" transform="translate(0,-38.6929)"><title>Sheet.215</title><desc>Host code</desc><g id="shadow215-425" class="st1" transform="matrix(1,0,0,1,2.84217E-014,3.00236)"><rect width="56.693" height="18" x="0" y="823.89" class="st2"/></g><rect width="56.693" height="18" x="0" y="823.89" class="st16"/><text x="12.04" y="835.29" class="st17">Host code</text></g><g id="shape216-430"><title>Sheet.216</title><desc>Device code</desc><g id="shadow216-431" class="st1" transform="matrix(1,0,0,1,2.84217E-014,3.00236)"><rect width="56.693" height="38.693" x="0" y="803.197" class="st2"/></g><rect width="56.693" height="38.693" x="0" y="803.197" class="st18"/><text x="8.69" y="824.94" class="st17">Device code</text></g></g><g id="shape219-436"><title>Sheet.219</title><desc>Fat object</desc><rect width="58.992" height="20" x="0" y="821.89" class="st19"/><text x="5.21" y="835.49" class="st4">Fat object</text></g></g><g id="shape221-439" transform="translate(208.211,-311.811)"><title>Dynamic Connector.221</title><path d="M7.09 841.89 L7.09 859.53" class="st5"/></g><g id="group222-444" transform="translate(364.655,-213.976)"><title>Sheet.222</title><g id="group223-445" transform="translate(1.14961,-19.9213)"><title>Entity 2</title><g id="shape224-446" transform="translate(0,-38.6929)"><title>Sheet.224</title><desc>Host code</desc><g id="shadow224-447" class="st1" transform="matrix(1,0,0,1,0,3.00236)"><rect width="56.693" height="18" x="0" y="823.89" class="st2"/></g><rect width="56.693" height="18" x="0" y="823.89" class="st16"/><text x="12.04" y="835.29" class="st17">Host code</text></g><g id="shape225-452"><title>Sheet.225</title><desc>Device code</desc><g id="shadow225-453" class="st1" transform="matrix(1,0,0,1,0,3.00236)"><rect width="56.693" height="38.693" x="0" y="803.197" class="st2"/></g><rect width="56.693" height="38.693" x="0" y="803.197" class="st18"/><text x="8.69" y="824.94" class="st17">Device code</text></g></g><g id="shape226-458"><title>Sheet.226</title><desc>Fat object</desc><rect width="58.992" height="20" x="0" y="821.89" class="st19"/><text x="5.21" y="835.49" class="st4">Fat object</text></g></g><g id="shape227-461" transform="translate(394.151,-233.898)"><title>Dynamic Connector.227</title><path d="M0 841.89 C-0 851.83 0 866.12 -9.3 873.56 C-18.22 880.7 -35.69 881.54 -48.95 881.64 L-49.31 881.64" class="st14"/></g><g id="group228-466" transform="translate(182.835,-576.85)"><title>Data Object.228</title><desc>Integration header</desc><g id="shape229-467"><title>Sheet.229</title><g id="shadow229-468" class="st1"><path d="M34.02 809.6 L21.77 809.6 L21.77 796.54 L0 796.54 L0 841.89 L34.02 841.89 L34.02 809.6 ZM34.02 808.51 L21.77 796.54 L21.77 809.6 L34.02 809.6 L34.02 808.51 Z" class="st2" transform="matrix(1,0,0,1,0,3.00236)"/></g><path d="M34.02 809.6 L21.77 809.6 L21.77 796.54 L0 796.54 L0 841.89 L34.02 841.89 L34.02 809.6 ZM34.02 808.51 L21.77 796.54 L21.77 809.6 L34.02 809.6 L34.02 808.51 Z" class="st3"/></g><g id="shape230-472" transform="translate(14.8819,0)"><title>Sheet.230</title></g><g id="shape228-474"><text x="-10.14" y="854.69" class="st4">Integration<tspan x="-.23" class="st13" dy="1.2em">header</tspan></text></g></g><g id="shape231-477" transform="translate(269.291,-606.614)"><title>Dynamic Connector.231</title><path d="M0 848.98 L-47.4 848.98" class="st5"/></g><g id="shape232-482" transform="translate(182.835,-592.441)"><title>Dynamic Connector.232</title><path d="M0 834.8 L-40.31 834.8" class="st5"/></g></g></svg>